<?xml version="1.0" standalone="no"?>
<!DOCTYPE svg PUBLIC "-//W3C//DTD SVG 20010904//EN"
 "http://www.w3.org/TR/2001/REC-SVG-20010904/DTD/svg10.dtd">
<svg version="1.0" xmlns="http://www.w3.org/2000/svg"
 width="1024.000000pt" height="1024.000000pt" viewBox="0 0 1024.000000 1024.000000"
 preserveAspectRatio="xMidYMid meet">

<g transform="translate(0.000000,1024.000000) scale(0.100000,-0.100000)"
fill="#000000" stroke="none">
<path d="M6984 8520 c-444 -57 -801 -168 -1072 -333 -248 -152 -480 -391 -642
-665 -30 -50 -57 -92 -60 -92 -3 0 -14 17 -25 37 -11 20 -53 84 -93 142 -239
342 -545 592 -922 753 -115 49 -188 54 -260 18 -61 -30 -88 -56 -117 -115 -31
-60 -35 -149 -9 -210 29 -69 73 -103 214 -171 288 -137 501 -313 675 -557 l59
-82 -73 -12 c-190 -29 -447 -110 -588 -183 -145 -76 -189 -131 -210 -265 -19
-125 -32 -464 -30 -760 l2 -290 -47 -290 c-26 -159 -49 -291 -49 -292 -1 0
-38 -13 -82 -28 -90 -30 -203 -96 -254 -149 l-34 -35 -35 31 c-138 120 -385
130 -543 21 l-45 -31 -22 39 c-29 49 -91 96 -140 103 -37 6 -120 -4 -156 -19
-10 -5 4 13 32 39 68 64 96 122 96 202 0 84 -33 148 -98 191 -76 52 -111 58
-328 58 l-197 0 -58 95 c-91 150 -207 386 -241 495 -45 143 -53 214 -41 388
23 356 160 666 410 933 116 123 188 184 309 264 206 135 405 211 685 260 181
33 243 74 280 188 45 137 -44 291 -184 321 -86 18 -348 -30 -571 -105 -143
-48 -370 -162 -504 -252 -592 -399 -936 -1023 -936 -1700 0 -75 7 -180 15
-232 30 -181 143 -470 270 -691 25 -43 45 -80 45 -83 0 -3 -32 -22 -72 -42
-91 -46 -191 -143 -207 -200 -15 -54 -14 -128 3 -167 38 -90 187 -156 354
-157 l42 0 0 -295 0 -295 -113 0 c-135 0 -197 -16 -254 -64 -59 -51 -87 -122
-81 -207 7 -98 59 -172 148 -212 36 -16 73 -21 183 -25 l137 -5 6 -26 c31
-140 98 -233 189 -265 61 -20 99 -20 157 0 92 31 163 122 189 244 l11 51 90
-3 91 -3 22 -66 c28 -83 63 -135 116 -171 143 -96 314 -3 368 200 l12 42 254
0 c251 0 254 0 266 -22 6 -12 31 -42 55 -68 l43 -46 -50 -18 c-100 -35 -163
-127 -163 -236 0 -104 25 -139 258 -363 494 -475 842 -786 1207 -1077 369
-295 531 -381 661 -352 122 29 250 117 543 373 350 307 981 930 1378 1360 192
208 234 249 279 269 89 41 192 115 255 184 33 36 63 66 66 66 2 0 8 -21 12
-47 11 -74 54 -178 91 -221 109 -127 300 -98 378 57 49 97 57 144 70 422 12
257 13 268 39 321 15 31 46 73 68 93 47 42 63 43 163 6 72 -27 145 -22 223 15
100 48 138 116 135 244 -4 149 -139 283 -316 312 l-65 11 36 56 c265 411 441
792 499 1086 24 116 24 413 0 560 -106 676 -522 1265 -1105 1564 -336 173
-696 232 -1097 181z m500 -506 c260 -42 514 -180 732 -398 132 -132 214 -242
292 -387 129 -242 192 -486 192 -743 0 -203 -42 -352 -175 -621 -100 -203
-154 -296 -331 -562 -117 -176 -138 -203 -169 -213 -72 -24 -140 -104 -173
-205 l-19 -59 -17 55 c-48 147 -175 265 -335 313 -68 20 -217 21 -290 1 -155
-41 -279 -150 -397 -351 -7 -12 -6 5 2 46 18 83 11 135 -27 194 -33 53 -90 85
-152 86 -45 0 -135 -30 -176 -59 -38 -28 -46 -27 -61 8 -11 28 -9 31 48 87 83
82 101 156 66 275 -32 109 -116 155 -262 143 l-77 -6 -33 79 -33 78 19 218
c11 120 22 220 26 224 3 4 38 15 77 25 88 22 150 52 204 100 53 47 75 92 75
154 0 101 -76 183 -199 216 -36 9 -75 17 -87 17 -19 1 -20 6 -20 114 0 90 -4
123 -21 170 -46 124 -142 195 -248 184 -156 -16 -249 -147 -285 -403 l-12 -82
-60 -17 c-33 -9 -62 -14 -65 -12 -8 9 18 117 58 241 81 248 207 454 389 637
121 121 203 181 347 253 215 107 560 193 873 215 114 9 205 4 324 -15z m-2634
-880 c101 -41 91 -168 -23 -290 -34 -37 -88 -84 -120 -106 -54 -36 -207 -114
-329 -166 l-47 -20 -3 -101 c-2 -56 -1 -101 2 -101 3 0 41 15 85 34 165 69
286 83 365 44 61 -31 78 -75 60 -156 -11 -50 -21 -65 -79 -122 -91 -90 -208
-153 -412 -223 -13 -4 -17 -35 -22 -204 -9 -274 -34 -375 -107 -437 -40 -33
-96 -35 -134 -5 -59 47 -111 192 -143 408 -33 215 -20 984 18 1138 24 92 178
180 455 258 223 64 359 79 434 49z m1151 -47 c73 -49 109 -169 90 -304 -5 -43
-13 -93 -17 -110 l-6 -33 73 0 c97 0 182 -25 225 -65 94 -89 -10 -215 -211
-255 -33 -6 -70 -14 -82 -16 -12 -2 -24 -12 -27 -22 -3 -9 -15 -127 -27 -262
-28 -328 -20 -404 51 -464 33 -27 34 -27 157 -24 l124 3 29 -32 c31 -35 46
-100 36 -156 -16 -87 -167 -167 -315 -167 l-36 0 0 -272 c0 -196 3 -272 12
-275 6 -2 70 60 142 139 256 278 372 352 454 288 97 -76 34 -246 -189 -511
-46 -56 -84 -105 -84 -109 0 -5 21 -44 47 -87 66 -111 176 -344 207 -437 39
-118 43 -175 17 -229 -28 -57 -59 -73 -129 -69 -34 3 -125 93 -181 181 -52 81
-139 253 -186 364 -27 66 -38 77 -50 57 -4 -6 -30 -25 -59 -44 l-53 -34 -7
-123 c-15 -275 -73 -414 -180 -435 -90 -16 -152 64 -182 236 -18 101 -17 238
6 920 10 299 17 382 46 502 16 66 16 67 -9 110 -56 96 -62 138 -62 448 0 157
4 333 8 391 l9 107 -74 0 c-128 0 -198 46 -198 133 0 36 6 55 26 78 35 42 134
88 232 109 l82 17 0 45 c0 68 17 168 40 242 47 153 159 227 251 165z m-701
-35 c59 -44 41 -131 -38 -187 -39 -27 -52 -30 -119 -30 -70 0 -76 2 -99 28
-42 49 -29 118 31 169 54 47 174 57 225 20z m-357 -344 l15 -77 -32 -84 -31
-83 -39 28 c-56 41 -107 51 -211 45 -79 -6 -113 -13 -200 -42 -11 -4 40 23
113 59 156 76 250 137 312 200 24 25 47 43 51 38 3 -4 13 -42 22 -84z m306
-63 c29 -25 61 -94 81 -178 30 -125 30 -686 0 -887 -31 -204 -102 -310 -208
-310 -66 0 -118 75 -146 211 -51 247 -41 798 18 994 49 162 169 242 255 170z
m265 -435 l29 0 -7 -98 c-4 -54 -6 -196 -6 -317 l1 -220 -63 -241 -62 -241
-52 34 c-29 19 -73 40 -98 46 l-46 12 47 35 c82 60 136 175 162 345 13 78 35
609 27 638 -4 15 -1 18 17 13 12 -3 35 -6 51 -6z m-662 -217 c-5 -137 14 -427
33 -518 24 -116 55 -185 105 -237 l47 -48 -26 -6 c-108 -24 -203 -76 -287
-159 l-64 -62 -121 306 c-67 168 -122 317 -122 331 -1 14 0 78 1 142 l2 116
38 13 c119 38 312 148 366 208 11 11 22 21 25 21 3 0 4 -48 3 -107z m-2514
-518 c96 -29 142 -96 126 -182 -16 -86 -174 -199 -346 -248 -80 -23 -71 5 -94
-305 -12 -170 -15 -306 -11 -555 5 -344 0 -417 -35 -497 -75 -174 -264 -145
-324 49 -20 63 -36 533 -32 946 l3 302 -125 1 c-105 0 -134 4 -182 23 -74 29
-108 68 -108 124 0 156 264 286 693 342 148 19 371 19 435 0z m5184 -393 c273
-132 304 -480 64 -717 -104 -103 -275 -185 -386 -185 -30 0 -32 -2 -26 -26 18
-69 77 -108 166 -108 59 -1 63 1 229 103 98 60 145 66 202 28 46 -31 61 -63
54 -116 -17 -145 -181 -315 -371 -387 -180 -68 -330 -30 -479 120 -140 141
-209 322 -208 546 1 349 179 674 416 761 42 15 74 18 162 16 101 -2 116 -5
177 -35z m-2259 -7 c151 -71 238 -261 228 -496 -1 -47 -55 -126 -101 -150 -21
-12 -55 -19 -87 -19 -46 0 -58 4 -88 33 -37 34 -55 93 -55 183 0 83 -51 103
-113 45 -66 -61 -147 -296 -147 -425 1 -119 45 -262 89 -286 52 -28 106 -4
214 96 60 56 118 81 160 70 42 -10 86 -54 98 -99 40 -150 -106 -342 -315 -415
-59 -20 -84 -24 -157 -20 -72 3 -97 9 -152 36 -205 101 -333 419 -297 743 37
333 179 588 384 689 100 49 253 56 339 15z m-1270 -20 c114 -30 226 -108 283
-197 90 -141 145 -397 159 -733 11 -272 -18 -440 -91 -512 -29 -30 -38 -33
-89 -33 -32 0 -72 7 -92 17 -45 21 -84 80 -90 136 l-5 44 -63 -43 c-157 -105
-343 -128 -463 -58 -139 82 -227 249 -203 385 14 82 55 151 127 218 125 114
272 180 527 235 24 6 27 11 27 49 -1 68 -32 124 -82 147 -78 35 -150 21 -270
-53 -91 -56 -144 -72 -197 -57 -59 16 -91 59 -91 124 0 216 343 401 613 331z
m-1639 -20 c-7 -16 -24 -21 -24 -6 0 8 7 13 27 20 1 1 0 -6 -3 -14z m256 -43
c36 -27 68 -90 83 -163 l13 -63 38 53 c87 119 189 168 327 158 91 -6 167 -37
217 -86 46 -47 64 -86 69 -156 5 -73 -16 -114 -74 -143 -66 -33 -114 -35 -189
-7 -36 14 -84 25 -106 25 -81 0 -157 -64 -210 -176 -37 -80 -48 -152 -48 -341
0 -247 -27 -377 -94 -447 -34 -37 -86 -53 -133 -41 -65 16 -116 110 -143 265
-6 30 -15 237 -21 460 -13 444 -9 495 39 583 52 97 158 133 232 79z m5553 19
c53 -20 96 -90 118 -189 l11 -52 38 48 c89 111 158 152 273 160 172 12 310
-76 336 -215 20 -101 -29 -171 -132 -193 -49 -10 -61 -9 -113 11 -74 27 -133
34 -177 20 -51 -17 -116 -87 -155 -170 l-35 -73 -13 -272 c-15 -323 -28 -379
-104 -451 -27 -26 -39 -30 -85 -30 -46 0 -58 4 -84 29 -78 74 -101 184 -111
531 -5 149 -12 324 -15 390 -12 206 18 346 88 413 45 43 112 61 160 43z
m-1428 -313 c-54 -170 -73 -331 -55 -469 23 -176 84 -328 181 -448 l50 -62
-98 -107 c-455 -494 -1194 -1205 -1481 -1425 l-63 -49 -119 91 c-216 163 -486
390 -780 655 -222 200 -690 646 -690 657 0 5 27 9 59 9 60 0 168 28 231 60
l36 18 47 -53 c54 -62 109 -85 199 -85 137 0 219 89 258 278 l17 84 13 -33 c8
-18 31 -58 51 -89 23 -34 93 -194 178 -409 76 -193 149 -367 161 -384 50 -72
139 -113 230 -104 110 10 185 72 219 182 10 33 56 203 102 378 46 174 86 317
89 317 4 0 12 -17 18 -37 18 -59 66 -128 107 -153 27 -17 53 -23 94 -24 184
-2 275 136 303 461 l12 133 67 -135 c149 -300 266 -425 397 -425 67 0 109 18
148 62 49 56 68 116 61 193 -11 117 -107 360 -216 549 -28 49 -51 91 -51 93 0
2 41 56 91 120 50 64 104 141 121 170 16 29 31 53 33 53 2 0 -7 -33 -20 -72z
m-3327 -172 c45 -23 112 -28 172 -12 30 8 56 13 58 12 10 -11 -16 -36 -56 -55
-59 -29 -158 -99 -196 -140 l-30 -31 -263 0 c-301 0 -282 -8 -233 95 33 70 88
125 124 125 13 0 54 -12 92 -26 54 -20 78 -24 118 -19 67 8 141 33 156 51 15
17 24 18 58 0z m1672 -13 c1 -55 55 -142 105 -170 18 -11 18 -14 -6 -108 -23
-94 -26 -99 -78 -147 -39 -36 -57 -46 -66 -38 -23 19 -40 104 -39 200 1 80 6
111 34 193 33 97 50 121 50 70z m-2875 -57 c40 -10 45 -20 45 -93 l0 -63 -75
0 -75 0 0 100 0 100 38 -18 c20 -11 50 -22 67 -26z"/>
<path d="M7276 4761 c-56 -37 -116 -156 -116 -229 0 -22 3 -24 37 -17 69 13
147 48 186 84 49 46 59 99 28 149 -18 28 -26 32 -63 32 -26 0 -55 -8 -72 -19z
m64 -74 c0 -2 -10 -12 -22 -23 l-23 -19 19 23 c18 21 26 27 26 19z"/>
<path d="M3916 4215 c-91 -37 -176 -117 -176 -165 0 -39 26 -55 87 -55 46 1
75 8 136 37 l77 37 0 86 0 85 -32 0 c-18 0 -60 -11 -92 -25z"/>
</g>
</svg>
